<svg height="512" viewBox="0 0 512 512" width="512" xmlns="http://www.w3.org/2000/svg"><g id="solid"><path d="m27.045 465.453a21.01 21.01 0 0 0 20.925 19.554q.74 0 1.485-.052a21.006 21.006 0 1 0 -22.41-19.5z"/><circle cx="87.978" cy="424.023" r="8"/><circle cx="110.605" cy="401.396" r="8"/><path d="m127.576 373.112a8 8 0 1 0 11.313 0 8 8 0 0 0 -11.313 0z"/><path d="m150.2 350.484a8 8 0 1 0 11.314 0 8 8 0 0 0 -11.314 0z"/><path d="m159.088 224.727 28.828 94.473 4.7-48.47a8 8 0 0 1 2.742-5.291l209.715-183.908z"/><path d="m212.358 271.915 81.808 81.03 170.202-312.46z"/><path d="m202.842 331.057 19.263-26.968-15.191-15.047z"/><path d="m150.86 211.002 313.508-170.517-361.554 122.928z"/></g></svg>